<?xml version="1.0" encoding="UTF-8"?>
<svg xmlns="http://www.w3.org/2000/svg" id="uuid-497187db-893e-406e-848c-628d87e7df70" data-name="Layer_1" viewBox="0 0 512 512">
  <defs>
    <style>
      .uuid-e2bece84-1051-4168-a763-14298c2ea87d, .uuid-2e1a1430-a682-40fa-b779-32248c9f0fd3, .uuid-03e083f2-2c3d-47d8-ba1a-ca3d12f6704f, .uuid-9c0be6d1-27f4-4fa3-8c5b-c8213dc5a7ec, .uuid-facea27b-8c17-475e-8fbf-94f1bbbae107, .uuid-af23935b-15d5-48b9-8fc6-c768a03a34a9 {
        stroke: #000331;
      }

      .uuid-e2bece84-1051-4168-a763-14298c2ea87d, .uuid-03e083f2-2c3d-47d8-ba1a-ca3d12f6704f {
        stroke-width: 1.64px;
      }

      .uuid-e2bece84-1051-4168-a763-14298c2ea87d, .uuid-af23935b-15d5-48b9-8fc6-c768a03a34a9 {
        fill: #00bbf1;
        stroke-linecap: round;
        stroke-linejoin: round;
      }

      .uuid-2e1a1430-a682-40fa-b779-32248c9f0fd3, .uuid-03e083f2-2c3d-47d8-ba1a-ca3d12f6704f {
        fill: #fff000;
      }

      .uuid-2e1a1430-a682-40fa-b779-32248c9f0fd3, .uuid-03e083f2-2c3d-47d8-ba1a-ca3d12f6704f, .uuid-9c0be6d1-27f4-4fa3-8c5b-c8213dc5a7ec, .uuid-facea27b-8c17-475e-8fbf-94f1bbbae107 {
        stroke-miterlimit: 10;
      }

      .uuid-2e1a1430-a682-40fa-b779-32248c9f0fd3, .uuid-9c0be6d1-27f4-4fa3-8c5b-c8213dc5a7ec, .uuid-facea27b-8c17-475e-8fbf-94f1bbbae107, .uuid-af23935b-15d5-48b9-8fc6-c768a03a34a9 {
        stroke-width: 2.19px;
      }

      .uuid-9c0be6d1-27f4-4fa3-8c5b-c8213dc5a7ec {
        fill: #fff;
      }

      .uuid-5d0aa103-00f6-4443-aeb3-e5573eaa8b60 {
        fill: #000331;
      }

      .uuid-4316195b-0036-4cf4-ba4a-0b8bc5428f32 {
        fill: #000331;
      }

      .uuid-facea27b-8c17-475e-8fbf-94f1bbbae107 {
        fill: #b6c3d1;
      }
    </style>
  </defs>
  <ellipse class="uuid-2e1a1430-a682-40fa-b779-32248c9f0fd3" cx="69.98" cy="300.81" rx="5.47" ry="13.34" transform="translate(-238.05 323.21) rotate(-81.06)"></ellipse>
  <ellipse class="uuid-2e1a1430-a682-40fa-b779-32248c9f0fd3" cx="103.52" cy="304.52" rx="5.47" ry="13.34" transform="translate(-202.38 403.87) rotate(-89.22)"></ellipse>
  <ellipse class="uuid-2e1a1430-a682-40fa-b779-32248c9f0fd3" cx="138.94" cy="300.81" rx="13.34" ry="5.47" transform="translate(-45.04 25.24) rotate(-8.94)"></ellipse>
  <path class="uuid-9c0be6d1-27f4-4fa3-8c5b-c8213dc5a7ec" d="M44.75,291.1c.34,1.2,1.24,2.37,2.63,3.48,7.66,6.1,30.29,10.52,57.01,10.52s49.34-4.42,57.01-10.52c1.39-1.11,2.29-2.28,2.63-3.48-2.2-4.82-28.06-8.63-59.64-8.63-31.58,0-57.44,3.81-59.64,8.63Z"></path>
  <path class="uuid-e2bece84-1051-4168-a763-14298c2ea87d" d="M202.61,272.09c0,10.58-44.06,19.2-98.23,19.2s-98.23-8.61-98.23-19.2l-.16.02v5.74c0,10.69,44.05,19.36,98.39,19.36s98.39-8.67,98.39-19.36v-5.74s-.16-.02-.16-.02Z"></path>
  <g>
    <path class="uuid-5d0aa103-00f6-4443-aeb3-e5573eaa8b60" d="M227.58,228.23h6.71l4,38.29.23,2.21.42-2.29,6.71-38.21h6.14l6.75,38.25.42,2.25.23-2.29,4-38.21h6.67l-6.75,55.52h-7.21l-6.75-39.51-.38-2.33-.42,2.36-6.79,39.47h-7.25l-6.75-55.52Z"></path>
    <path class="uuid-5d0aa103-00f6-4443-aeb3-e5573eaa8b60" d="M288.54,283.03c-2.43-.99-4.51-2.38-6.23-4.16-1.73-1.78-3.08-3.89-4.04-6.33-.97-2.44-1.45-5.1-1.45-7.97v-1.6c0-3.33.53-6.31,1.6-8.94,1.07-2.63,2.49-4.86,4.27-6.69,1.75-1.8,3.76-3.19,6.01-4.16,2.25-.97,4.56-1.45,6.92-1.45,2.97,0,5.57.51,7.8,1.54,2.22,1.03,4.07,2.45,5.55,4.25,1.47,1.83,2.57,3.98,3.3,6.44.72,2.47,1.09,5.14,1.09,8.01v3.17h-29.48v.27c.18,2.01.58,3.78,1.2,5.3.62,1.53,1.48,2.87,2.57,4.04,1.12,1.25,2.47,2.23,4.04,2.94,1.58.71,3.32,1.07,5.22,1.07,2.52,0,4.75-.51,6.71-1.52,1.96-1.02,3.58-2.37,4.88-4.04l4.31,3.36c-1.37,2.08-3.43,3.93-6.16,5.55-2.73,1.62-6.11,2.42-10.12,2.42-2.9,0-5.56-.5-7.99-1.49ZM291.57,248.31c-1.27.52-2.42,1.28-3.43,2.27-1.02,1.02-1.88,2.26-2.57,3.72-.7,1.46-1.19,3.15-1.47,5.05h22.19v-.34c0-1.27-.24-2.64-.72-4.1-.48-1.46-1.16-2.73-2.02-3.79-.87-1.07-1.95-1.93-3.26-2.59-1.31-.66-2.87-.99-4.67-.99-1.42,0-2.77.26-4.04.78Z"></path>
    <path class="uuid-5d0aa103-00f6-4443-aeb3-e5573eaa8b60" d="M359.74,268.79c-.27,1.67-.65,3.22-1.16,4.67-.69,1.91-1.58,3.62-2.69,5.13-1.11,1.51-2.43,2.76-3.99,3.76-1.12.69-2.34,1.22-3.68,1.6-1.33.38-2.78.57-4.33.57-1.78,0-3.4-.22-4.86-.65-1.46-.43-2.78-1.05-3.95-1.87-.56-.41-1.09-.85-1.6-1.33-.51-.48-.99-1.02-1.45-1.6l-.34,4.69h-6.48v-58.57h7.05v21.74c.58-.74,1.23-1.4,1.94-2,.71-.6,1.47-1.11,2.29-1.54,1.02-.53,2.14-.94,3.36-1.22,1.22-.28,2.54-.42,3.97-.42,1.78,0,3.42.24,4.92.72,1.5.48,2.86,1.16,4.08,2.02,1.09.81,2.07,1.8,2.94,2.96.86,1.16,1.63,2.45,2.29,3.87.69,1.6,1.21,3.38,1.56,5.32.36,1.95.53,4,.53,6.16v.8c0,1.8-.13,3.54-.4,5.21ZM352.83,258.99c-.17-1.23-.41-2.4-.74-3.49-.46-1.35-1.06-2.58-1.79-3.7s-1.64-2-2.71-2.63c-.74-.46-1.56-.81-2.48-1.07-.92-.25-1.93-.38-3.05-.38-1.22,0-2.34.16-3.36.48-1.02.32-1.92.76-2.71,1.32-.81.58-1.53,1.27-2.16,2.04-.62.78-1.15,1.62-1.58,2.54v18.04c.46.92,1,1.76,1.62,2.54s1.34,1.46,2.16,2.04c.81.58,1.73,1.04,2.75,1.35,1.02.32,2.14.48,3.36.48s2.24-.15,3.2-.44c.97-.29,1.83-.72,2.59-1.28,1.02-.71,1.87-1.61,2.56-2.71.69-1.09,1.23-2.31,1.64-3.66.33-1.02.57-2.11.72-3.28.15-1.17.23-2.36.23-3.58v-.8c0-1.3-.08-2.56-.25-3.79Z"></path>
    <path class="uuid-5d0aa103-00f6-4443-aeb3-e5573eaa8b60" d="M379.74,283.76h-7.06v-55.52h18c2.49.05,4.85.45,7.07,1.18,2.22.74,4.18,1.81,5.85,3.2,1.68,1.4,3.01,3.13,3.98,5.19.98,2.06,1.47,4.42,1.47,7.09s-.49,5.03-1.47,7.07c-.98,2.05-2.31,3.77-3.98,5.17-1.68,1.4-3.63,2.47-5.85,3.2-2.23.74-4.58,1.12-7.07,1.14h-10.94v22.27ZM390.68,255.69c1.63-.02,3.13-.29,4.5-.78s2.57-1.2,3.58-2.12c1.02-.92,1.81-2.03,2.38-3.34.57-1.31.86-2.8.86-4.48s-.29-3.19-.86-4.54c-.57-1.35-1.35-2.49-2.34-3.43-1.02-.94-2.22-1.66-3.6-2.17-1.39-.51-2.89-.78-4.52-.8h-10.94v21.66h10.94Z"></path>
    <path class="uuid-5d0aa103-00f6-4443-aeb3-e5573eaa8b60" d="M450,242c1.41.18,2.47.42,3.18.72l-.95,6.9c-1.37-.31-2.68-.53-3.91-.67-1.23-.14-2.52-.21-3.87-.21-1.73,0-3.29.21-4.69.63-1.4.42-2.62,1.04-3.66,1.85-.94.71-1.76,1.58-2.46,2.61s-1.28,2.18-1.73,3.45v26.47h-7.09v-41.26h6.71l.3,5.53.04,1.03c1.68-2.26,3.69-4.05,6.04-5.36,2.35-1.31,5.03-1.96,8.03-1.96,1.3,0,2.65.09,4.06.27Z"></path>
    <path class="uuid-5d0aa103-00f6-4443-aeb3-e5573eaa8b60" d="M465.08,254.45c.86-2.56,2.11-4.77,3.74-6.65,1.6-1.88,3.56-3.36,5.87-4.44s4.92-1.62,7.82-1.62,5.55.54,7.88,1.62,4.3,2.56,5.93,4.44c1.6,1.88,2.83,4.1,3.7,6.65s1.3,5.32,1.3,8.29v.84c0,2.97-.43,5.73-1.3,8.28s-2.1,4.75-3.7,6.63c-1.63,1.88-3.6,3.36-5.91,4.42-2.31,1.07-4.92,1.6-7.82,1.6s-5.55-.53-7.88-1.6-4.29-2.54-5.89-4.42c-1.63-1.88-2.87-4.09-3.74-6.63-.87-2.54-1.3-5.3-1.3-8.28v-.84c0-2.97.43-5.74,1.3-8.29ZM471.56,269.4c.48,1.84,1.22,3.46,2.21,4.86.97,1.4,2.19,2.5,3.66,3.32,1.47.81,3.19,1.22,5.15,1.22s3.63-.41,5.09-1.22c1.46-.81,2.69-1.92,3.68-3.32.97-1.4,1.69-3.02,2.17-4.86.48-1.84.72-3.78.72-5.82v-.84c0-2.01-.25-3.93-.74-5.78-.5-1.84-1.23-3.46-2.19-4.86-.99-1.4-2.22-2.51-3.68-3.34-1.46-.83-3.17-1.24-5.13-1.24s-3.66.41-5.11,1.24c-1.45.83-2.66,1.94-3.62,3.34-.99,1.4-1.73,3.02-2.21,4.86-.48,1.84-.72,3.77-.72,5.78v.84c0,2.03.24,3.97.72,5.82Z"></path>
  </g>
  <ellipse class="uuid-facea27b-8c17-475e-8fbf-94f1bbbae107" cx="104.5" cy="272.21" rx="98.39" ry="19.36"></ellipse>
  <path class="uuid-af23935b-15d5-48b9-8fc6-c768a03a34a9" d="M52.08,262.78c0,5.68,23.42,10.29,52.31,10.29s52.31-4.61,52.31-10.29c0-19.92-10.26-60.77-52.31-60.77s-52.31,40.85-52.31,60.77Z"></path>
  <ellipse class="uuid-03e083f2-2c3d-47d8-ba1a-ca3d12f6704f" cx="104.39" cy="282.47" rx="5.2" ry="3.52"></ellipse>
  <ellipse class="uuid-03e083f2-2c3d-47d8-ba1a-ca3d12f6704f" cx="65.6" cy="281.24" rx="3.52" ry="5.2" transform="translate(-218.35 333.88) rotate(-87.37)"></ellipse>
  <ellipse class="uuid-03e083f2-2c3d-47d8-ba1a-ca3d12f6704f" cx="32.68" cy="275.65" rx="3.52" ry="5.2" transform="translate(-244.19 295.51) rotate(-87.34)"></ellipse>
  <ellipse class="uuid-03e083f2-2c3d-47d8-ba1a-ca3d12f6704f" cx="176.4" cy="275.65" rx="3.52" ry="5.2" transform="translate(-107.13 439.08) rotate(-87.34)"></ellipse>
  <ellipse class="uuid-03e083f2-2c3d-47d8-ba1a-ca3d12f6704f" cx="142.22" cy="281.24" rx="5.2" ry="3.52" transform="translate(-12.74 6.81) rotate(-2.63)"></ellipse>
  <path class="uuid-4316195b-0036-4cf4-ba4a-0b8bc5428f32" d="M37.9,287.48c.32,0,.64-.16.83-.44,7.84-11.73,23.43-17.48,23.59-17.53.52-.19.79-.76.6-1.28-.19-.52-.76-.79-1.28-.6-.66.24-16.37,6.02-24.57,18.3-.31.46-.18,1.08.28,1.39.17.11.36.17.55.17Z"></path>
  <path class="uuid-4316195b-0036-4cf4-ba4a-0b8bc5428f32" d="M169.99,287.48c.19,0,.38-.05.55-.17.46-.31.58-.93.28-1.39-7.52-11.25-21.47-17.1-24.19-18.15-.51-.2-1.09.05-1.29.57-.2.51.05,1.09.57,1.29,2.62,1.02,16.06,6.65,23.25,17.4.19.29.51.44.83.44Z"></path>
</svg>
